<svg width="16" height="16" viewBox="0 0 16 16" fill="none" xmlns="http://www.w3.org/2000/svg">
<path fill-rule="evenodd" clip-rule="evenodd" d="M7.80003 3.28747e-07C6.25734 2.63727e-07 4.74924 0.45747 3.46653 1.31454C2.18383 2.17162 1.18409 3.3898 0.59373 4.81506C0.00336662 6.24033 -0.151082 7.80866 0.149882 9.32172C0.450847 10.8348 1.19374 12.2246 2.28459 13.3154C3.37544 14.4063 4.76525 15.1492 6.2783 15.4501C7.79135 15.7511 9.35969 15.5966 10.785 15.0063C12.2102 14.4159 13.4284 13.4162 14.2854 12.1335C15.1425 10.8508 15.6 9.34268 15.6 7.79999C15.5974 5.73211 14.7748 3.74969 13.3125 2.28748C11.8503 0.825266 9.86791 0.00264645 7.80003 3.28747e-07ZM7.80003 13.868C6.19136 13.8664 4.64899 13.2267 3.51139 12.0893C2.3738 10.9519 1.73389 9.40967 1.73204 7.80099C1.73805 7.20026 1.82719 6.60327 1.99699 6.02701C2.36726 4.77915 3.13332 3.68555 4.17955 2.91116C5.22577 2.13678 6.49545 1.72362 7.79704 1.73401C9.40611 1.73401 10.9492 2.3732 12.087 3.51099C13.2248 4.64877 13.864 6.19193 13.864 7.801C13.864 9.41006 13.2248 10.9532 12.087 12.091C10.9492 13.2288 9.40611 13.868 7.79704 13.868L7.80003 13.868ZM10.54 4.91599C10.3774 4.75343 10.1569 4.66211 9.92698 4.66211C9.69707 4.66211 9.47659 4.75343 9.31401 4.91599L7.80003 6.42999L6.28599 4.91599C6.12264 4.7572 5.90339 4.6691 5.67558 4.67072C5.44777 4.67233 5.22973 4.76353 5.06864 4.92462C4.90756 5.08571 4.81635 5.30375 4.81474 5.53156C4.81312 5.75936 4.90119 5.97864 5.05998 6.142L6.57402 7.65601L5.05998 9.17001C4.90119 9.33337 4.81312 9.55265 4.81474 9.78046C4.81635 10.0083 4.90756 10.2263 5.06864 10.3874C5.22973 10.5484 5.44777 10.6397 5.67558 10.6413C5.90339 10.6429 6.12263 10.5548 6.28599 10.396L7.80003 8.88199L9.31401 10.396C9.47736 10.5548 9.69667 10.6429 9.92448 10.6413C10.1523 10.6397 10.3703 10.5484 10.5314 10.3874C10.6924 10.2263 10.7837 10.0083 10.7853 9.78046C10.7869 9.55265 10.6988 9.33337 10.54 9.17001L9.02598 7.65601L10.54 6.142C10.6213 6.0614 10.6857 5.96553 10.7297 5.85989C10.7737 5.75426 10.7964 5.64093 10.7964 5.52649C10.7964 5.41205 10.7737 5.29875 10.7297 5.19312C10.6857 5.08748 10.6213 4.99161 10.54 4.91101L10.54 4.91599Z" fill="white"/>
</svg>
