<svg width="16" height="18" viewBox="0 0 16 18" fill="none" xmlns="http://www.w3.org/2000/svg">
<path d="M5.54098 16.8659C5.53897 16.6797 5.46411 16.5016 5.33242 16.37C5.20073 16.2383 5.02269 16.1634 4.83647 16.1614H1.3769V5.63226L5.6014 1.3769H12.1824V5.81611C12.1844 6.00233 12.2593 6.18037 12.391 6.31205C12.5227 6.44374 12.7007 6.51861 12.8869 6.52062C13.0732 6.51861 13.2512 6.44374 13.3829 6.31205C13.5146 6.18037 13.5895 6.00233 13.5915 5.81611V1.3769C13.5921 1.19579 13.5569 1.01633 13.4879 0.848888C13.4189 0.681445 13.3174 0.52933 13.1892 0.401322C13.0611 0.273314 12.9089 0.171946 12.7414 0.103068C12.5739 0.0341897 12.3944 -0.000834887 12.2133 1.51079e-05H5.6014C5.23783 0.00281626 4.88931 0.145541 4.6282 0.398554L0.398548 4.65263C0.144002 4.91534 0.00115584 5.26647 9.67625e-06 5.63226V16.1627C-0.000670165 16.3437 0.03448 16.523 0.103434 16.6904C0.172388 16.8578 0.273783 17.0098 0.401774 17.1378C0.529766 17.2658 0.681823 17.3672 0.849181 17.4361C1.01654 17.5051 1.19589 17.5402 1.3769 17.5396H4.83518C4.92587 17.5421 5.01617 17.5267 5.10086 17.4941C5.18555 17.4616 5.26295 17.4126 5.32858 17.3499C5.39421 17.2873 5.44678 17.2123 5.48323 17.1292C5.51969 17.0461 5.53932 16.9566 5.54098 16.8659Z" fill="white"/>
<path d="M5.59143 14.4239V16.6891C5.5911 16.8018 5.61304 16.9135 5.65602 17.0177C5.69899 17.1219 5.76214 17.2165 5.84183 17.2962C5.92153 17.3759 6.01619 17.4391 6.12038 17.482C6.22457 17.525 6.33623 17.547 6.44893 17.5466H8.71418L15.2039 11.0569C15.3657 10.8943 15.4564 10.6743 15.4564 10.4449C15.4564 10.2156 15.3657 9.99558 15.2039 9.83298L13.3051 7.95856C13.1425 7.79684 12.9225 7.70605 12.6931 7.70605C12.4638 7.70605 12.2438 7.79684 12.0812 7.95856L5.59143 14.4239ZM7.0056 16.1325V14.9998L8.13823 16.1325H7.0056ZM9.14871 15.122L8.01609 13.9893L12.6996 9.30588L13.8322 10.4385L9.14871 15.122Z" fill="white"/>
</svg>
