<svg width="18" height="23" viewBox="0 0 18 23" fill="none" xmlns="http://www.w3.org/2000/svg">
<path d="M10.4361 1.80595L15.9755 7.34529V21.153H1.8062V1.80595H10.4361ZM10.4361 -0.000244141H1.8062C1.80404 -0.000244141 1.80117 -0.000244141 1.79829 -0.000244141C0.80499 -0.000244141 0 0.804746 0 1.79805C0 1.80092 0 1.80308 0 1.80595V1.80523V21.1926C0 21.1947 0 21.1976 0 21.2005C0 22.1938 0.80499 22.9988 1.79829 22.9988C1.80117 22.9988 1.80332 22.9988 1.8062 22.9988H15.9747C15.9769 22.9988 15.9798 22.9988 15.9826 22.9988C16.9759 22.9988 17.7809 22.1938 17.7809 21.2005C17.7809 21.1976 17.7809 21.1954 17.7809 21.1926V21.1933V7.38554C17.7795 6.88602 17.5804 6.43321 17.2584 6.10043L17.2591 6.10115L11.7198 0.521562C11.3877 0.200285 10.9349 0.00119334 10.4354 -0.000244141L10.4361 -0.000244141Z" fill="#595D66"/>
<path d="M16.1358 8.26815H10.4362C10.4319 8.26815 10.4262 8.26815 10.4211 8.26815C9.91944 8.26815 9.51263 7.86134 9.51263 7.35966C9.51263 7.35463 9.51263 7.34888 9.51263 7.34385V7.34456V1.6852C9.52413 1.18423 9.9331 0.781738 10.4355 0.781738C10.9458 0.781738 11.3591 1.19501 11.3591 1.70532C11.3591 1.71251 11.3591 1.7197 11.3591 1.72616V1.72545V6.5022H16.1358C16.1401 6.5022 16.1459 6.5022 16.1509 6.5022C16.6526 6.5022 17.0594 6.90901 17.0594 7.41069C17.0594 7.41572 17.0594 7.42147 17.0594 7.4265V7.42578C17.0472 7.89512 16.6641 8.2703 16.1933 8.2703C16.1732 8.2703 16.1538 8.26958 16.1337 8.26815H16.1366H16.1358Z" fill="#595D66"/>
<path fill-rule="evenodd" clip-rule="evenodd" d="M13.2656 14.0184C13.2656 13.7642 13.1646 13.5204 12.9848 13.3406C12.8051 13.1608 12.5613 13.0598 12.307 13.0598L9.9395 13.0598L9.93948 10.6923C9.93591 10.4404 9.83336 10.2001 9.65398 10.0232C9.47459 9.84635 9.2328 9.74718 8.9809 9.74718C8.72899 9.74718 8.4872 9.84635 8.30782 10.0232C8.12844 10.2001 8.02584 10.4404 8.02227 10.6923L8.02229 13.0598L5.65471 13.0598C5.40282 13.0634 5.16252 13.166 4.98566 13.3454C4.8088 13.5248 4.70966 13.7665 4.70966 14.0184C4.70966 14.2703 4.8088 14.5121 4.98566 14.6915C5.16252 14.8709 5.40285 14.9734 5.65473 14.977L8.02232 14.977L8.02229 17.3446C8.02586 17.5965 8.12843 17.8368 8.30782 18.0137C8.4872 18.1905 8.72897 18.2896 8.98087 18.2896C9.23278 18.2896 9.47459 18.1905 9.65398 18.0137C9.83336 17.8368 9.93591 17.5965 9.93948 17.3446L9.93945 14.977L12.307 14.977C12.4336 14.9775 12.5589 14.953 12.6759 14.9048C12.7929 14.8566 12.8993 14.7857 12.9887 14.6962C13.0782 14.6067 13.1491 14.5004 13.1973 14.3834C13.2455 14.2664 13.27 14.1411 13.2695 14.0145L13.2656 14.0184Z" fill="#595D66"/>
</svg>
