<svg width="21" height="21" viewBox="0 0 21 21" fill="none" xmlns="http://www.w3.org/2000/svg">
<path d="M8.09116 6.99956H1.53108C0.685803 6.99825 0.000656271 6.31378 0 5.46853V1.53103C0.00131254 0.685781 0.685803 0.00065625 1.53108 0H8.09116C8.93644 0.0013125 9.62158 0.685781 9.62224 1.53103V5.46853C9.62092 6.31378 8.93644 6.99891 8.09116 6.99956ZM1.53108 1.3125C1.41033 1.3125 1.31254 1.41028 1.31254 1.53103V5.46853C1.31254 5.58928 1.41033 5.68706 1.53108 5.68706H8.09116C8.21191 5.68706 8.3097 5.58928 8.3097 5.46853V1.53103C8.3097 1.41028 8.21191 1.3125 8.09116 1.3125H1.53108ZM8.09116 21H1.53108C0.685803 20.9987 0.000656271 20.3142 0 19.469V10.2815C0.00131254 9.43622 0.685803 8.75109 1.53108 8.75044H8.09116C8.93644 8.75175 9.62158 9.43622 9.62224 10.2815V19.469C9.62092 20.3142 8.93644 20.9993 8.09116 21ZM1.53108 10.0629C1.41033 10.0629 1.31254 10.1607 1.31254 10.2815V19.469C1.31254 19.5897 1.41033 19.6875 1.53108 19.6875H8.09116C8.21191 19.6875 8.3097 19.5897 8.3097 19.469V10.2815C8.3097 10.1607 8.21191 10.0629 8.09116 10.0629H1.53108ZM19.4689 21H12.9062C12.0609 20.9987 11.3758 20.3142 11.3751 19.469V15.5315C11.3764 14.6862 12.0609 14.0011 12.9062 14.0004H19.4689C20.3142 14.0017 20.9993 14.6862 21 15.5315V19.469C20.9987 20.3142 20.3142 20.9993 19.4689 21ZM12.9062 15.3129C12.7855 15.3129 12.6877 15.4107 12.6877 15.5315V19.469C12.6877 19.5897 12.7855 19.6875 12.9062 19.6875H19.4689C19.5897 19.6875 19.6875 19.5897 19.6875 19.469V15.5315C19.6875 15.4107 19.5897 15.3129 19.4689 15.3129H12.9062ZM19.4689 12.2496H12.9062C12.0609 12.2483 11.3758 11.5638 11.3751 10.7185V1.53103C11.3764 0.685781 12.0609 0.00065625 12.9062 0H19.4689C20.3142 0.0013125 20.9993 0.685781 21 1.53103V10.7185C20.9987 11.5638 20.3142 12.2489 19.4689 12.2496ZM12.9062 1.3125C12.7855 1.3125 12.6877 1.41028 12.6877 1.53103V10.7185C12.6877 10.8393 12.7855 10.9371 12.9062 10.9371H19.4689C19.5897 10.9371 19.6875 10.8393 19.6875 10.7185V1.53103C19.6875 1.41028 19.5897 1.3125 19.4689 1.3125H12.9062Z" fill="white"/>
</svg>
